<svg xmlns="http://www.w3.org/2000/svg" viewBox="0 0 365.59 370"><defs><style>.cls-1{fill:none;stroke:#000;stroke-linecap:round;stroke-linejoin:round;stroke-width:10px;}</style></defs><g id="Layer_2" data-name="Layer 2"><g id="Layer_4" data-name="Layer 4"><path class="cls-1" d="M317.68,236.68c27.92-17.83,45.09-54.05,42.69-87.68-.67-9.4-3.49-27.2-21.14-52.63C331.4,85.09,275.78,4.94,185,5,97,5.06,5,80.5,5,185A180,180,0,0,0,185,365c1.45,0,2.9,0,4.37-.1,25.15-1.11,52.16-11.51,74.31-22.66h0a352.21,352.21,0,0,0,47.25-28.63,143.52,143.52,0,0,0-20.25-22.93c-27.8-25.38-54-36-54-36S282,259.46,317.68,236.68Z"/><path class="cls-1" d="M263.68,335.68l-27-18,18-18-18-18,18-18"/></g><g id="Layer_3" data-name="Layer 3"><path class="cls-1" d="M182.68,155.68c27.63,0,34.44,6.7,45,0,8.66-5.49,7.92-12.41,18-27a108.48,108.48,0,0,1,27-27c4.7,5.12,35.94,40.11,27,81-4.89,22.43-19.94,37.8-27,45-20.52,21-34.91,19.86-54,36-12.5,10.58-27.51,29-36,63-8.48-34-23.49-52.42-36-63-19.08-16.14-33.47-15-54-36-7.05-7.2-22.1-22.57-27-45-8.93-40.89,22.3-75.88,27-81a108.15,108.15,0,0,1,27,27c10.09,14.59,9.35,21.51,18,27C148.25,162.38,155.06,155.68,182.68,155.68Z"/><path class="cls-1" d="M254.68,164.68a51.31,51.31,0,0,0,18-54"/><path class="cls-1" d="M110.68,164.68a51.31,51.31,0,0,1-18-54"/></g></g></svg>